<svg version="1.2" xmlns="http://www.w3.org/2000/svg" viewBox="0 0 200 200" width="200" height="200">
	<title>dice-target-svg</title>
	<style>
		.s0 { fill: #b08bda;stroke: #b08bda;stroke-width: .4 } 
	</style>
	<g id="SVGRepo_bgCarrier">
	</g>
	<g id="SVGRepo_tracerCarrier">
	</g>
	<g id="SVGRepo_iconCarrier">
		<path id="Layer" fill-rule="evenodd" class="s0" d="m103.2 14.9v8.2c39.9 1.7 72 33.8 73.7 73.7h8.2v6.4h-8.2c-1.7 39.9-33.8 72-73.7 73.7v8.2h-6.4v-8.2c-39.9-1.7-72-33.8-73.7-73.7h-8.2v-6.4h8.2c1.7-39.9 33.8-72 73.7-73.7v-8.2zm-73.7 81.9h8.1v6.4h-8.1c1.6 36.4 30.9 65.7 67.3 67.3v-8.1h6.4v8.1c36.5-1.6 65.7-30.9 67.3-67.3h-8.1v-6.4h8.1c-1.6-36.4-30.8-65.7-67.3-67.3v8.1h-6.4v-8.1c-36.4 1.6-65.7 30.9-67.3 67.3zm75-52.7l41.1 23.7c2.6 1.5 2.6 3.9 0 5.4l-41.1 23.8c-2.5 1.5-6.5 1.5-9.1 0l-41.2-23.8c-2.6-1.5-2.6-3.9 0-5.4l41.2-23.7c1.2-0.7 2.8-1.1 4.6-1.1 1.6 0 3.3 0.4 4.5 1.1zm-42.5 29.7c3.4 1.7 8.4 1.6 11.6-0.3 3.1-1.8 3.3-4.8 0.5-6.8-1.5-0.9-3.6-1.5-5.7-1.5-7.6-0.1-11.7 5.3-6.4 8.6zm64 0.1c3.4 1.8 8.4 1.7 11.7-0.2 3.1-1.9 3.3-4.9 0.4-7-1.5-0.8-3.5-1.4-5.6-1.5h-0.7c-7.4 0.2-11.1 5.5-5.8 8.7zm-32.1-7.2c-3.6 2-3.7 5.4-0.2 7.4 3.5 2.1 9.2 2 12.5-0.2 5.3-3.2 1.6-8.6-6-8.7-2.3 0-4.6 0.6-6.3 1.5zm-41.7 13.7l39.5 22.8c2.6 1.5 4.6 5.1 4.6 8v42.5c0 2.9-2 4.1-4.6 2.6l-39.5-22.8c-2.6-1.5-4.7-5-4.7-8v-42.5c0-2.1 1.1-3.2 2.7-3.2 0.5 0 1.2 0.2 2 0.6zm100.3 2.6v42.5c0 3-2.1 6.5-4.6 8l-39.5 22.8c-2.6 1.5-4.6 0.3-4.6-2.6v-42.5c0-2.9 2-6.5 4.6-8l39.5-22.8c0.7-0.4 1.5-0.6 2-0.6 1.5 0 2.6 1.1 2.6 3.2zm-68.5 20c-1.9 0.2-3.1 1.7-3.1 4.1-0.2 3.7 2.6 8.6 6 10.6 3.5 2 6.3 0.4 6.1-3.5 0.1-5.1-4.7-11-8.7-11.2zm38.1 18.9c0 3.7 2.7 5.1 6.1 3.1 3.3-1.9 6-6.5 6.1-10.2 0-2.4-1.2-3.9-3.1-4.1h-0.3c-4 0.1-8.8 6.1-8.8 11.2zm-71.2 0.9c-0.2 3.8 2.5 8.6 6 10.6 3.5 2 6.2 0.4 6.1-3.6 0-5.1-5-11.3-9.1-11.1-1.9 0.1-3 1.7-3 4.1z"/>
	</g>
</svg>