<svg version="1.2" xmlns="http://www.w3.org/2000/svg" viewBox="0 0 250 250" width="250" height="250">
	<title>dice-faces-1-svg</title>
	<style>
		.s0 { fill: #ffffff } 
	</style>
	<g id="Layer">
		<path id="Layer" fill-rule="evenodd" class="s0" d="m215.8 15c2.5 0 5 0.5 7.3 1.5 2.4 0.9 4.5 2.4 6.3 4.1 1.7 1.8 3.2 3.9 4.1 6.3 1 2.3 1.5 4.8 1.5 7.4v181.4c0 2.6-0.5 5.1-1.5 7.4-0.9 2.4-2.4 4.5-4.1 6.3-1.8 1.7-3.9 3.2-6.3 4.1-2.3 1-4.8 1.5-7.4 1.5h-181.5c-2.5 0-5-0.5-7.3-1.5-2.4-0.9-4.5-2.4-6.3-4.1-1.7-1.8-3.2-3.9-4.1-6.3-1-2.3-1.5-4.8-1.5-7.4v-181.5c0-2.5 0.5-5 1.5-7.3 0.9-2.4 2.4-4.5 4.1-6.3 1.8-1.7 3.9-3.2 6.3-4.1 2.3-1 4.8-1.5 7.3-1.5zm-108.4 92.3c-4.7 4.7-7.3 11.1-7.3 17.7 0 6.6 2.6 13 7.3 17.7 4.7 4.7 11.1 7.3 17.7 7.3 6.6 0 13-2.6 17.7-7.3 4.7-4.7 7.3-11.1 7.3-17.7 0-6.6-2.6-13-7.3-17.7-4.7-4.7-11.1-7.3-17.7-7.3-6.6 0-13 2.6-17.7 7.3z"/>
	</g>
</svg>